<svg
        xmlns="http://www.w3.org/2000/svg"
        height="24px"
        viewBox="0 -960 960 960"
        width="24px"
        fill="#5f6368"

>
    <path id="first"
          d="m560.48-200 160-160-56-56-64 62v-166h-80v166l-64-62-56 56 160 160Zm-200-240h80v-166l64 62 56-56-160-160-160 160 56 56 64-62v166ZM480-71.87q-84.91 0-159.34-32.12-74.44-32.12-129.5-87.17-55.05-55.06-87.17-129.5Q71.87-395.09 71.87-480t32.12-159.34q32.12-74.44 87.17-129.5 55.06-55.05 129.5-87.17 74.43-32.12 159.34-32.12t159.34 32.12q74.44 32.12 129.5 87.17 55.05 55.06 87.17 129.5 32.12 74.43 32.12 159.34t-32.12 159.34q-32.12 74.44-87.17 129.5-55.06 55.05-129.5 87.17Q564.91-71.87 480-71.87Zm0-91q133.04 0 225.09-92.04 92.04-92.05 92.04-225.09 0-133.04-92.04-225.09-92.05-92.04-225.09-92.04-133.04 0-225.09 92.04-92.04 92.05-92.04 225.09 0 133.04 92.04 225.09 92.05 92.04 225.09 92.04ZM480-480Z"/>


    <path id="secong"
          d="M202.87-111.87q-37.78 0-64.39-26.61t-26.61-64.39v-554.26q0-37.78 26.61-64.39t64.39-26.61h554.26q37.78 0 64.39 26.61t26.61 64.39v554.26q0 37.78-26.61 64.39t-64.39 26.61H202.87Zm277.13-91h277.13v-554.26H480v554.26Z"/>


</svg>